<svg xmlns="http://www.w3.org/2000/svg" viewBox="0 0 256 256">
  <defs>
    <linearGradient id="shield-gradient" x1="0%" y1="0%" x2="100%" y2="100%">
      <stop offset="0%" style="stop-color:#00E1FF"/>
      <stop offset="100%" style="stop-color:#0097B2"/>
    </linearGradient>
  </defs>
  <path d="M128 16L32 64v80c0 70.7 43.1 136.3 96 161.9 52.9-25.6 96-91.2 96-161.9V64L128 16z" fill="url(#shield-gradient)"/>
  <path d="M128 36L48 76v68c0 60.1 36.6 115.9 80 137.9 43.4-22 80-77.8 80-137.9V76L128 36z" fill="none" stroke="#F5F5F5" stroke-width="4" opacity="0.2"/>
  <path d="M128 56L64 88v56c0 49.5 30.1 95.5 64 113.9 33.9-18.4 64-64.4 64-113.9V88L128 56z" fill="none" stroke="#F5F5F5" stroke-width="4" opacity="0.1"/>
</svg>