<svg xmlns="http://www.w3.org/2000/svg" viewBox="0 0 800 600" width="800" height="600">
  <defs>
    <linearGradient id="grad1" x1="0%" y1="0%" x2="100%" y2="100%">
      <stop offset="0%" style="stop-color:#4299e1;stop-opacity:1" />
      <stop offset="100%" style="stop-color:#2b6cb0;stop-opacity:1" />
    </linearGradient>
  </defs>
  <rect x="50" y="50" width="700" height="500" rx="20" ry="20" fill="#fff" stroke="#e2e8f0" stroke-width="2"/>
  <rect x="80" y="80" width="640" height="60" rx="10" ry="10" fill="#f7fafc"/>
  <circle cx="120" cy="110" r="15" fill="#4299e1"/>
  <rect x="150" y="100" width="200" height="20" rx="5" ry="5" fill="#edf2f7"/>
  <rect x="80" y="160" width="200" height="360" rx="10" ry="10" fill="#f7fafc"/>
  <rect x="300" y="160" width="420" height="360" rx="10" ry="10" fill="#f7fafc"/>
  <circle cx="180" cy="200" r="30" fill="url(#grad1)"/>
  <rect x="100" y="250" width="160" height="15" rx="3" ry="3" fill="#edf2f7"/>
  <rect x="100" y="280" width="140" height="15" rx="3" ry="3" fill="#edf2f7"/>
  <rect x="320" y="180" width="380" height="40" rx="5" ry="5" fill="#edf2f7"/>
  <rect x="320" y="240" width="380" height="260" rx="5" ry="5" fill="#edf2f7"/>
</svg>