<svg xmlns="http://www.w3.org/2000/svg" viewBox="0 0 256 256">
  <defs>
    <linearGradient id="shield-gradient" x1="0%" y1="0%" x2="100%" y2="100%">
      <stop offset="0%" style="stop-color:#00E1FF"/>
      <stop offset="100%" style="stop-color:#0097B2"/>
    </linearGradient>
  </defs>

  <!-- Group to scale the entire icon -->
  <!-- Scales the content to 90% around the center (128, 128) -->
  <g transform="translate(128 128) scale(0.9) translate(-128 -128)">

    <!-- Main Shield - Using the adjusted path data that fits before scaling -->
    <path d="M128 16 
             L32 64 
             v80 
             C 32 192, 80 240, 128 240 
             C 176 240, 224 192, 224 144 
             V64 
             L128 16 z" 
          fill="url(#shield-gradient)"/>

    <!-- Settings Gear Inner Circle/Hole - Original path kept -->
    <path d="M128 84a44 44 0 1 0 0 88 44 44 0 0 0 0-88zm0 72a28 28 0 1 1 0-56 28 28 0 0 1 0 56z" 
          fill="#F5F5F5"/>

    <!-- Settings Gear Teeth/Outer Shape - Original path kept -->
    <path d="M128 64c-8.8 0-16 7.2-16 16v8a44 44 0 0 0 0 80v8c0 8.8 7.2 16 16 16s16-7.2 16-16v-8a44 44 0 0 0 0-80v-8c0-8.8-7.2-16-16-16z" 
          fill="#F5F5F5" opacity="0.6"/>

  </g>
</svg>
