<svg xmlns="http://www.w3.org/2000/svg" viewBox="0 0 256 256">
  <defs>
    <linearGradient id="shield-gradient" x1="0%" y1="0%" x2="100%" y2="100%">
      <stop offset="0%" style="stop-color:#00E1FF"/>
      <stop offset="100%" style="stop-color:#0097B2"/>
    </linearGradient>
  </defs>
  <path d="M128 16L32 64v80c0 70.7 43.1 136.3 96 161.9 52.9-25.6 96-91.2 96-161.9V64L128 16z" fill="url(#shield-gradient)"/>
  <path d="M128 84c-17.7 0-32 14.3-32 32h16c0-8.8 7.2-16 16-16s16 7.2 16 16c0 16-24 24-24 48h16c0-16 24-24 24-48 0-17.7-14.3-32-32-32zM128 172v16" stroke="#F5F5F5" stroke-width="16" stroke-linecap="round" stroke-linejoin="round" fill="none"/>
</svg>