<svg xmlns="http://www.w3.org/2000/svg" viewBox="0 0 256 256">
  <defs>
    <linearGradient id="shield-gradient" x1="0%" y1="0%" x2="100%" y2="100%">
      <stop offset="0%" style="stop-color:#00E1FF"/>
      <stop offset="100%" style="stop-color:#0097B2"/>
    </linearGradient>
  </defs>
  <path d="M128 16L32 64v80c0 70.7 43.1 136.3 96 161.9 52.9-25.6 96-91.2 96-161.9V64L128 16z" fill="url(#shield-gradient)"/>
  <path d="M128 84a44 44 0 1 0 0 88 44 44 0 0 0 0-88zm0 72a28 28 0 1 1 0-56 28 28 0 0 1 0 56z" fill="#F5F5F5"/>
  <path d="M128 64c-8.8 0-16 7.2-16 16v8a44 44 0 0 0 0 80v8c0 8.8 7.2 16 16 16s16-7.2 16-16v-8a44 44 0 0 0 0-80v-8c0-8.8-7.2-16-16-16z" fill="#F5F5F5" opacity="0.6"/>
</svg>